<svg version="1.0" xmlns="http://www.w3.org/2000/svg"
 width="512.000000pt" height="512.000000pt" viewBox="0 0 512.000000 512.000000"
 preserveAspectRatio="xMidYMid meet">

<g transform="translate(0.000000,512.000000) scale(0.100000,-0.100000)"
fill="#000000" stroke="none">
<path d="M1192 3904 c-17 -12 -22 -24 -20 -47 5 -52 27 -57 264 -57 202 0 212
-1 244 -23 19 -12 42 -36 51 -52 10 -17 121 -427 247 -913 147 -569 235 -889
246 -900 15 -16 95 -17 1100 -17 1178 0 1116 -3 1116 56 0 62 61 59 -1092 59
l-1047 0 -10 38 c-76 290 -91 354 -86 362 4 7 391 10 1108 10 1055 0 1104 1
1143 19 75 34 83 54 218 507 69 231 126 436 126 455 0 40 -29 92 -62 111 -19
10 -293 14 -1428 18 l-1405 5 -31 117 c-41 156 -92 221 -200 254 -72 21 -451
20 -482 -2z"/>
<path d="M2536 1705 c-57 -20 -108 -66 -139 -126 -25 -48 -28 -62 -25 -124 4
-78 24 -127 70 -174 53 -54 104 -75 183 -75 108 -1 184 45 233 139 47 93 32
211 -37 288 -70 78 -187 107 -285 72z"/>
<path d="M3855 1696 c-93 -43 -147 -128 -147 -231 -1 -103 45 -181 133 -230
45 -24 65 -29 124 -29 151 0 255 104 255 256 0 149 -107 257 -255 258 -42 0
-75 -7 -110 -24z"/>
</g>
</svg>
